PathFileType  4	(X/Y/Z)
DataRate	CameraRate	NumFrames	NumMarkers	Units	OrigDataRate	OrigDataStartFrame	OrigNumFrames
  200.0 	  200.0 	   4 	     50 	mm 	  200.0 	      603 	   1204
Frame#	Time	R.Shoulder			R.Clavicle			R.Bicep			R.Elbow			R.Forearm			R.Wrist			L.Shoulder			L.Clavicle			L.Scapula			L.Bicep			L.Elbow			L.Forearm			L.Wrist			R.ASIS			R.PSIS			S2			L.PSIS			L.ASIS			R.TH1			R.TH2			R.TH3			R.Knee			R.SH1			R.SH2			R.SH3			R.SH4			R.Ankle			R.Heel			R.MT5			L.TH1			L.TH2			L.TH3			L.TH4			L.Knee			L.SH1			L.SH2			L.SH3			L.Ankle			L.Heel			L.MT5			R.Melb			R.GTR			R.Mkn			R.Man			R.MT0			L.Melb			L.GTR			L.Mkn			L.Man			L.MT0			
		X1	Y1	Z1	X2	Y2	Z2	X3	Y3	Z3	X4	Y4	Z4	X5	Y5	Z5	X6	Y6	Z6	X7	Y7	Z7	X8	Y8	Z8	X9	Y9	Z9	X10	Y10	Z10	X11	Y11	Z11	X12	Y12	Z12	X13	Y13	Z13	X14	Y14	Z14	X15	Y15	Z15	X16	Y16	Z16	X17	Y17	Z17	X18	Y18	Z18	X19	Y19	Z19	X20	Y20	Z20	X21	Y21	Z21	X22	Y22	Z22	X23	Y23	Z23	X24	Y24	Z24	X25	Y25	Z25	X26	Y26	Z26	X27	Y27	Z27	X28	Y28	Z28	X29	Y29	Z29	X30	Y30	Z30	X31	Y31	Z31	X32	Y32	Z32	X33	Y33	Z33	X34	Y34	Z34	X35	Y35	Z35	X36	Y36	Z36	X37	Y37	Z37	X38	Y38	Z38	X39	Y39	Z39	X40	Y40	Z40	X41	Y41	Z41	X42	Y42	Z42	X43	Y43	Z43	X44	Y44	Z44	X45	Y45	Z45	X46	Y46	Z46	X47	Y47	Z47	X48	Y48	Z48	X49	Y49	Z49	X50	Y50	Z50	

603	3.01000	533.695	1605.614	-1930.548	613.088	1600.572	-2081.070	584.675	1397.309	-1883.025	467.546	1305.602	-1851.556	549.741	1247.302	-1763.050	502.934	1132.457	-1731.370	565.337	1610.217	-2307.018	622.864	1601.648	-2137.626	441.004	1576.420	-2214.058	610.657	1454.695	-2353.978	514.743	1317.734	-2412.147	580.268	1254.645	-2479.836	544.730	1136.357	-2504.267	657.136	1151.673	-1987.078	425.316	1227.082	-2067.717	418.031	1221.418	-2120.213	431.888	1228.383	-2174.358	655.639	1140.955	-2242.305	594.835	945.273	-1906.277	444.414	958.510	-1935.255	441.216	884.008	-1942.460	494.482	736.455	-1913.156	518.216	603.931	-1882.447	518.975	529.507	-1887.709	409.864	610.078	-1928.935	407.532	533.884	-1924.443	481.890	333.209	-1893.857	415.994	299.419	-1943.666	601.316	276.238	-1863.853	598.730	907.930	-2312.311	602.147	826.545	-2299.006	450.978	908.192	-2305.984	445.659	831.373	-2300.587	497.349	727.140	-2312.710	539.819	641.580	-2334.143	428.434	642.301	-2319.926	423.386	566.215	-2335.820	505.359	338.146	-2357.392	421.561	296.960	-2325.644	604.832	278.599	-2384.141	540.331	1274.086	-1922.462	536.075	1094.203	-1892.371	510.376	693.809	-2077.403	506.444	337.128	-1984.798	618.231	279.244	-1978.534	586.553	1271.689	-2320.623	523.990	1111.851	-2324.379	495.476	694.178	-2146.522	511.091	333.976	-2261.742	624.115	279.356	-2261.504
604	3.01500	533.710	1605.600	-1930.538	613.088	1600.570	-2081.069	584.696	1397.291	-1883.024	467.546	1305.607	-1851.558	549.781	1247.283	-1763.067	502.932	1132.454	-1731.367	565.344	1610.228	-2306.998	622.862	1601.629	-2137.615	441.007	1576.420	-2214.061	610.662	1454.696	-2353.978	514.705	1317.743	-2412.132	580.264	1254.628	-2479.810	544.710	1136.360	-2504.256	657.137	1151.673	-1987.079	425.340	1227.082	-2067.729	418.032	1221.418	-2120.214	431.905	1228.366	-2174.350	655.657	1140.961	-2242.308	594.829	945.270	-1906.263	444.427	958.510	-1935.253	441.220	884.005	-1942.462	494.483	736.456	-1913.156	518.216	603.931	-1882.451	518.973	529.504	-1887.715	409.865	610.078	-1928.937	407.533	533.894	-1924.448	481.894	333.214	-1893.856	415.994	299.419	-1943.665	601.316	276.238	-1863.853	598.754	907.930	-2312.313	602.168	826.547	-2299.002	450.986	908.188	-2305.981	445.665	831.374	-2300.585	497.356	727.146	-2312.713	539.822	641.579	-2334.142	428.431	642.299	-2319.930	423.391	566.217	-2335.822	505.359	338.148	-2357.395	421.562	296.959	-2325.643	604.828	278.598	-2384.142	540.356	1274.090	-1922.431	536.090	1094.205	-1892.373	510.382	693.810	-2077.402	506.445	337.129	-1984.798	618.237	279.245	-1978.540	586.535	1271.686	-2320.601	523.989	1111.852	-2324.375	495.479	694.179	-2146.526	511.092	333.975	-2261.756	624.115	279.354	-2261.504
605	3.02000	533.724	1605.587	-1930.531	613.089	1600.568	-2081.067	584.718	1397.274	-1883.024	467.546	1305.607	-1851.556	549.819	1247.265	-1763.082	502.931	1132.451	-1731.363	565.353	1610.239	-2306.977	622.860	1601.609	-2137.604	441.010	1576.420	-2214.064	610.667	1454.697	-2353.980	514.668	1317.749	-2412.114	580.261	1254.610	-2479.785	544.690	1136.364	-2504.244	657.137	1151.673	-1987.079	425.369	1227.081	-2067.742	418.032	1221.418	-2120.215	431.921	1228.352	-2174.342	655.675	1140.967	-2242.312	594.824	945.267	-1906.251	444.440	958.509	-1935.251	441.224	884.001	-1942.464	494.484	736.457	-1913.156	518.215	603.931	-1882.454	518.971	529.501	-1887.722	409.867	610.078	-1928.939	407.534	533.905	-1924.453	481.899	333.218	-1893.854	415.995	299.420	-1943.661	601.316	276.237	-1863.853	598.778	907.928	-2312.316	602.189	826.549	-2298.999	450.994	908.183	-2305.976	445.671	831.376	-2300.583	497.362	727.151	-2312.716	539.823	641.578	-2334.141	428.428	642.298	-2319.935	423.396	566.219	-2335.823	505.360	338.149	-2357.398	421.562	296.959	-2325.642	604.824	278.597	-2384.144	540.381	1274.096	-1922.397	536.107	1094.208	-1892.375	510.387	693.810	-2077.400	506.446	337.129	-1984.798	618.248	279.247	-1978.546	586.520	1271.683	-2320.577	523.988	1111.852	-2324.372	495.481	694.180	-2146.530	511.093	333.974	-2261.766	624.114	279.352	-2261.504
606	3.02500	533.738	1605.575	-1930.525	613.090	1600.565	-2081.063	584.743	1397.257	-1883.024	467.546	1305.602	-1851.548	549.857	1247.246	-1763.097	502.930	1132.446	-1731.359	565.363	1610.251	-2306.955	622.859	1601.589	-2137.591	441.012	1576.420	-2214.068	610.672	1454.699	-2353.982	514.632	1317.752	-2412.094	580.258	1254.593	-2479.761	544.670	1136.368	-2504.230	657.138	1151.673	-1987.080	425.400	1227.078	-2067.756	418.033	1221.418	-2120.215	431.936	1228.342	-2174.334	655.694	1140.974	-2242.316	594.820	945.264	-1906.240	444.452	958.508	-1935.249	441.230	883.996	-1942.466	494.485	736.457	-1913.157	518.215	603.931	-1882.458	518.969	529.498	-1887.728	409.869	610.078	-1928.942	407.535	533.918	-1924.460	481.903	333.223	-1893.852	415.996	299.422	-1943.657	601.318	276.236	-1863.853	598.804	907.926	-2312.319	602.210	826.551	-2298.996	451.003	908.178	-2305.971	445.678	831.378	-2300.582	497.368	727.156	-2312.719	539.824	641.577	-2334.139	428.424	642.296	-2319.940	423.401	566.221	-2335.824	505.360	338.151	-2357.400	421.563	296.958	-2325.641	604.818	278.595	-2384.146	540.408	1274.103	-1922.361	536.126	1094.211	-1892.377	510.393	693.811	-2077.399	506.446	337.130	-1984.798	618.262	279.250	-1978.554	586.506	1271.680	-2320.551	523.987	1111.853	-2324.368	495.483	694.181	-2146.533	511.096	333.973	-2261.772	624.113	279.350	-2261.504
